# xmcd
#
# Track frame offsets:
#	150
#	26524
#	46174
#	69401
#	80803
#	94627
#	106014
#	136337
#	153566
#	168140
#	181724
#	193132
#	206705
#	219581
#	237332
#	252466
#	262278
#	274834
#	289348
#	308035
#
# Disc length: 4284 seconds
#
# Revision: 0
# Processed by: cddbd v1.5.2PL0 Copyright (c) Steve Scherf et al.
# Submitted via: FairStars CD Ripper 1.80
#
DISCID=2510ba14
DTITLE=Nina Simone - My Baby Just Cares For Me cd2
DYEAR=2014
DGENRE=Jazz
TTITLE0=Please Don't Let Me Be Misunderstood
TTITLE1=Little Girl Blue
TTITLE2=Porgy
TTITLE3=I Want A Little Sugar In My Bowl
TTITLE4=Gin House Blues
TTITLE5=It Don't Mean A Thing
TTITLE6=I Ain't Got No
TTITLE7=You'll Never Walk Alone
TTITLE8=Don't Smoke In Bed
TTITLE9=The Other Woman
TTITLE10=He Needs Me
TTITLE11=I Like The Sunrise
TTITLE12=Cotton Eyed Joe
TTITLE13=It Might As Well Be Spring
TTITLE14=Blue Prelude
TTITLE15=You've Been Gone Too Long
TTITLE16=Chilly Winds Don't Blow
TTITLE17=Willow Weep For Me
TTITLE18=Rags And Old Iron
TTITLE19=Do Nothin' Till You Hear From Me
EXTD=
EXTT0=
EXTT1=
EXTT2=
EXTT3=
EXTT4=
EXTT5=
EXTT6=
EXTT7=
EXTT8=
EXTT9=
EXTT10=
EXTT11=
EXTT12=
EXTT13=
EXTT14=
EXTT15=
EXTT16=
EXTT17=
EXTT18=
EXTT19=
PLAYORDER=
